<svg id="visual" viewBox="0 0 1000 250" width="1000" height="250" xmlns="http://www.w3.org/2000/svg" xmlns:xlink="http://www.w3.org/1999/xlink" version="1.1"><rect x="0" y="0" width="1000" height="250" fill="#b391e5"></rect><path d="M0 172L15.2 174.2C30.3 176.3 60.7 180.7 91 184.8C121.3 189 151.7 193 182 188.2C212.3 183.3 242.7 169.7 273 166.8C303.3 164 333.7 172 364 172.5C394.3 173 424.7 166 454.8 169.2C485 172.3 515 185.7 545.2 193C575.3 200.3 605.7 201.7 636 196.5C666.3 191.3 696.7 179.7 727 172.8C757.3 166 787.7 164 818 167C848.3 170 878.7 178 909 182C939.3 186 969.7 186 984.8 186L1000 186L1000 251L984.8 251C969.7 251 939.3 251 909 251C878.7 251 848.3 251 818 251C787.7 251 757.3 251 727 251C696.7 251 666.3 251 636 251C605.7 251 575.3 251 545.2 251C515 251 485 251 454.8 251C424.7 251 394.3 251 364 251C333.7 251 303.3 251 273 251C242.7 251 212.3 251 182 251C151.7 251 121.3 251 91 251C60.7 251 30.3 251 15.2 251L0 251Z" fill="#6600ff"></path><path d="M0 225L15.2 219.5C30.3 214 60.7 203 91 198.5C121.3 194 151.7 196 182 199.7C212.3 203.3 242.7 208.7 273 211.3C303.3 214 333.7 214 364 215C394.3 216 424.7 218 454.8 218.3C485 218.7 515 217.3 545.2 218.2C575.3 219 605.7 222 636 222.8C666.3 223.7 696.7 222.3 727 216C757.3 209.7 787.7 198.3 818 193.7C848.3 189 878.7 191 909 192.8C939.3 194.7 969.7 196.3 984.8 197.2L1000 198L1000 251L984.8 251C969.7 251 939.3 251 909 251C878.7 251 848.3 251 818 251C787.7 251 757.3 251 727 251C696.7 251 666.3 251 636 251C605.7 251 575.3 251 545.2 251C515 251 485 251 454.8 251C424.7 251 394.3 251 364 251C333.7 251 303.3 251 273 251C242.7 251 212.3 251 182 251C151.7 251 121.3 251 91 251C60.7 251 30.3 251 15.2 251L0 251Z" fill="#0079ff"></path><path d="M0 207L15.2 207.7C30.3 208.3 60.7 209.7 91 214.5C121.3 219.3 151.7 227.7 182 228.5C212.3 229.3 242.7 222.7 273 219.8C303.3 217 333.7 218 364 221.3C394.3 224.7 424.7 230.3 454.8 234C485 237.7 515 239.3 545.2 235.2C575.3 231 605.7 221 636 219.8C666.3 218.7 696.7 226.3 727 230C757.3 233.7 787.7 233.3 818 234.7C848.3 236 878.7 239 909 237.5C939.3 236 969.7 230 984.8 227L1000 224L1000 251L984.8 251C969.7 251 939.3 251 909 251C878.7 251 848.3 251 818 251C787.7 251 757.3 251 727 251C696.7 251 666.3 251 636 251C605.7 251 575.3 251 545.2 251C515 251 485 251 454.8 251C424.7 251 394.3 251 364 251C333.7 251 303.3 251 273 251C242.7 251 212.3 251 182 251C151.7 251 121.3 251 91 251C60.7 251 30.3 251 15.2 251L0 251Z" fill="#4facf7"></path></svg>